<!-- /e-web/user/icons/icons.svg -->
<svg xmlns="http://www.w3.org/2000/svg" style="display: none;">
  <symbol xmlns="http://www.w3.org/2000/svg" id="search" viewBox="0 0 24 24">
        <path fill="currentColor"
          d="M21.71 20.29L18 16.61A9 9 0 1 0 16.61 18l3.68 3.68a1 1 0 0 0 1.42 0a1 1 0 0 0 0-1.39ZM11 18a7 7 0 1 1 7-7a7 7 0 0 1-7 7Z" />
      </symbol>
      <symbol xmlns="http://www.w3.org/2000/svg" id="user" viewBox="0 0 24 24">
        <path fill="currentColor"
          d="M15.71 12.71a6 6 0 1 0-7.42 0a10 10 0 0 0-6.22 8.18a1 1 0 0 0 2 .22a8 8 0 0 1 15.9 0a1 1 0 0 0 1 .89h.11a1 1 0 0 0 .88-1.1a10 10 0 0 0-6.25-8.19ZM12 12a4 4 0 1 1 4-4a4 4 0 0 1-4 4Z" />
      </symbol>
  <!-- Bạn có thể thêm các symbol khác như #cart, #heart ở đây -->
</svg>
